<svg width="477" height="153" viewBox="0 0 477 153" fill="none" xmlns="http://www.w3.org/2000/svg">
<path d="M275.658 0H233.274C229.35 0 225.589 1.5824 222.809 4.36008C215.292 11.9237 209.757 17.5177 202.235 25.0668C199.456 27.8397 197.883 31.6432 197.883 35.592V72.2341C197.883 74.0246 199.335 75.4811 201.134 75.4811H241.411C245.355 75.4811 249.116 73.8987 251.896 71.1017C260.191 62.7542 266.241 56.6859 274.557 48.319C277.317 45.5219 278.89 41.7377 278.89 37.789V3.27127C278.89 1.46142 277.437 0 275.658 0ZM270.262 24.7571L254.281 61.1524C251.847 66.7271 245.393 69.2338 239.853 66.7852L208.425 52.8242C206.544 51.9822 205.708 49.7804 206.525 47.8883L222.506 11.493C224.94 5.92313 231.394 3.4116 236.934 5.86022L268.362 19.8212C270.243 20.6632 271.08 22.865 270.262 24.7571Z" fill="white"/>
<path d="M19.2169 142.465C19.1782 142.586 19.102 142.692 18.9994 142.767C18.8967 142.842 18.7729 142.882 18.6459 142.882C18.5188 142.882 18.395 142.842 18.2924 142.767C18.1897 142.692 18.1135 142.586 18.0748 142.465L7.28389 114.574H0V152.309H5.3745V127.364C5.34468 127.207 5.3783 127.045 5.46797 126.913C5.55763 126.782 5.69598 126.691 5.85259 126.661C6.00921 126.631 6.17124 126.665 6.30306 126.755C6.43489 126.844 6.52569 126.983 6.55551 127.139L16.4172 152.318H20.8835L30.7272 127.16C30.757 127.003 30.848 126.864 30.9801 126.774C31.1122 126.684 31.2746 126.651 31.4316 126.681C31.5886 126.71 31.7274 126.801 31.8173 126.933C31.9073 127.065 31.9411 127.228 31.9112 127.385V152.318H37.2887V114.577H29.9539L19.2169 142.465Z" fill="white"/>
<path d="M49.9891 135.265H82.0832C82.1401 134.693 82.1911 134.066 82.1911 133.446C82.1943 130.829 81.6686 128.238 80.6456 125.829C79.6225 123.42 78.1232 121.243 76.2377 119.428C74.3522 117.613 72.1193 116.198 69.6732 115.267C67.2271 114.337 64.6181 113.91 62.003 114.013C51.9824 114.391 43.6884 122.685 43.3257 132.702C43.1484 137.236 44.5635 141.688 47.3254 145.287C50.0874 148.886 54.0219 151.404 58.4466 152.406C62.8712 153.407 67.5069 152.828 71.5494 150.77C75.5919 148.711 78.7863 145.302 80.5784 141.134L74.7093 140.67C74.104 141.624 73.4007 142.512 72.6111 143.32C71.3169 144.621 69.7782 145.654 68.0835 146.359C66.3887 147.064 64.5713 147.426 62.7359 147.426C60.9004 147.426 59.0831 147.064 57.3883 146.359C55.6936 145.654 54.1549 144.621 52.8607 143.32C50.9356 141.406 49.623 138.964 49.0898 136.302C49.0698 136.173 49.0781 136.041 49.1142 135.916C49.1504 135.79 49.2134 135.674 49.299 135.575C49.3846 135.477 49.4907 135.398 49.6098 135.344C49.729 135.291 49.8584 135.264 49.9891 135.265ZM49.4915 129.105C49.5002 129.07 49.5113 129.035 49.5245 129.001C49.5604 128.893 49.5994 128.794 49.6354 128.686C49.6564 128.635 49.6743 128.587 49.6923 128.536C49.7942 128.272 49.8992 128.014 50.0191 127.757C50.076 127.619 50.139 127.487 50.2079 127.355C50.2768 127.223 50.3458 127.055 50.4207 126.929C50.4614 126.843 50.5074 126.758 50.5586 126.677C50.6545 126.495 50.7594 126.306 50.8583 126.126C51.1575 125.64 51.4848 125.171 51.8385 124.723C51.9704 124.567 52.1023 124.405 52.2342 124.253C52.2762 124.211 52.3151 124.16 52.3571 124.115C52.5219 123.926 52.6988 123.746 52.8727 123.569C54.1668 122.268 55.7056 121.235 57.4003 120.53C59.0951 119.825 60.9124 119.462 62.7479 119.462C64.5833 119.462 66.4007 119.825 68.0954 120.53C69.7902 121.235 71.3289 122.268 72.6231 123.569C72.7999 123.746 72.9768 123.926 73.1387 124.115C73.1836 124.16 73.2196 124.211 73.2646 124.253C73.4084 124.417 73.5643 124.591 73.6902 124.762C73.6999 124.778 73.711 124.793 73.7232 124.807C73.879 125.014 74.0229 125.221 74.1878 125.434C74.3526 125.646 74.4875 125.892 74.6404 126.126C74.7933 126.36 74.9102 126.576 75.0271 126.803C75.2684 127.249 75.4866 127.708 75.6805 128.176C75.6985 128.221 75.7135 128.266 75.7315 128.308C75.8184 128.53 75.8993 128.749 75.9833 128.974C75.9833 128.974 75.9833 128.995 75.9833 129.001C75.9833 129.007 76.0013 129.069 76.0133 129.105C76.0265 129.205 76.0182 129.307 75.989 129.404C75.9599 129.5 75.9104 129.59 75.8441 129.666C75.7777 129.742 75.6959 129.803 75.6042 129.845C75.5124 129.886 75.4127 129.908 75.3118 129.909H50.1869C50.0868 129.909 49.9878 129.888 49.8964 129.847C49.8049 129.807 49.723 129.747 49.656 129.673C49.589 129.599 49.5384 129.511 49.5075 129.416C49.4765 129.321 49.466 129.22 49.4765 129.12L49.4915 129.105Z" fill="white"/>
<path d="M149.982 152.732C146.148 152.732 142.399 151.595 139.211 149.464C136.023 147.334 133.538 144.306 132.07 140.763C130.603 137.221 130.219 133.322 130.967 129.562C131.715 125.801 133.562 122.346 136.273 119.635C138.984 116.923 142.439 115.077 146.2 114.329C149.961 113.581 153.859 113.965 157.402 115.432C160.944 116.899 163.972 119.384 166.103 122.573C168.233 125.761 169.37 129.509 169.37 133.344C169.364 138.484 167.32 143.412 163.685 147.047C160.051 150.682 155.122 152.726 149.982 152.732ZM149.982 119.496C147.243 119.496 144.566 120.308 142.288 121.829C140.011 123.351 138.236 125.514 137.188 128.044C136.14 130.575 135.866 133.359 136.4 136.046C136.934 138.732 138.253 141.199 140.19 143.136C142.127 145.073 144.594 146.392 147.281 146.926C149.967 147.461 152.751 147.186 155.282 146.138C157.812 145.09 159.975 143.315 161.497 141.038C163.018 138.76 163.831 136.083 163.831 133.344C163.827 129.672 162.366 126.152 159.77 123.556C157.174 120.96 153.654 119.5 149.982 119.496Z" fill="white"/>
<path d="M125.457 133.137V133.347C125.452 136.918 124.464 140.418 122.599 143.464C120.734 146.509 118.066 148.982 114.888 150.609C114.747 150.684 114.606 150.75 114.462 150.819L114.039 151.017C113.8 151.128 113.551 151.233 113.305 151.317C113.059 151.401 112.795 151.515 112.538 151.617C112.28 151.719 111.953 151.814 111.656 151.916C111.282 152.027 110.892 152.126 110.505 152.216C110.167 152.297 109.828 152.357 109.483 152.42L109.336 152.45C108.968 152.513 108.584 152.561 108.203 152.603H108.185C107.483 152.685 106.776 152.729 106.069 152.735C102.53 152.735 99.0593 151.767 96.0317 149.935C93.004 148.103 90.5355 145.478 88.8935 142.343C87.2516 139.209 86.4988 135.684 86.7168 132.152C86.9348 128.621 88.1153 125.216 90.1303 122.307C92.1453 119.398 94.918 117.096 98.1479 115.651C101.378 114.205 104.942 113.671 108.453 114.107C111.965 114.542 115.291 115.93 118.07 118.121C120.849 120.311 122.975 123.221 124.219 126.534H118.119C116.92 124.414 115.183 122.647 113.083 121.413C110.983 120.179 108.595 119.521 106.159 119.505C103.724 119.489 101.327 120.115 99.211 121.322C97.095 122.528 95.3347 124.271 94.1076 126.375C92.8806 128.479 92.2303 130.869 92.2224 133.305C92.2144 135.74 92.8491 138.135 94.0624 140.247C95.2757 142.359 97.0247 144.113 99.1328 145.333C101.241 146.553 103.633 147.196 106.069 147.195C106.369 147.195 106.648 147.195 106.929 147.162C109.678 146.99 112.313 146.003 114.498 144.326C116.683 142.649 118.318 140.358 119.195 137.747C119.213 137.702 119.228 137.654 119.246 137.612C119.264 137.57 119.246 137.585 119.246 137.579C119.26 137.546 119.27 137.51 119.276 137.474C119.288 137.386 119.282 137.296 119.258 137.211C119.219 137.059 119.13 136.924 119.007 136.827C118.883 136.73 118.732 136.676 118.575 136.674H106.941V131.321H125.364C125.364 131.363 125.364 131.408 125.364 131.456C125.364 131.554 125.382 131.659 125.388 131.755C125.406 132.001 125.424 132.247 125.436 132.499C125.448 132.75 125.457 132.927 125.457 133.137Z" fill="white"/>
<path d="M217.612 136.516C217.015 139.417 215.461 142.035 213.2 143.949C210.994 145.816 208.188 146.821 205.299 146.779C201.537 146.779 198.462 145.481 196.159 142.924C193.857 140.367 192.676 136.905 192.676 132.673C192.676 128.44 193.848 124.99 196.159 122.421C198.471 119.853 201.537 118.567 205.299 118.567C208.052 118.539 210.732 119.456 212.891 121.165C215.098 122.893 216.682 125.292 217.403 128L217.478 128.263H222.873L222.774 127.823C221.806 123.596 219.696 120.131 216.503 117.529C213.348 114.941 209.379 113.552 205.299 113.609C199.885 113.609 195.467 115.374 192.161 118.86C188.855 122.346 187.188 126.978 187.188 132.673C187.188 138.368 188.861 143.008 192.161 146.485C195.461 149.962 199.885 151.737 205.299 151.737C209.495 151.802 213.569 150.319 216.74 147.57C219.936 144.81 222.034 141.141 222.933 136.665L223.02 136.234H217.684L217.612 136.516Z" fill="white"/>
<path d="M296.389 141.273C296.387 141.39 296.347 141.504 296.276 141.597C296.204 141.691 296.105 141.759 295.992 141.793C295.88 141.826 295.759 141.823 295.648 141.783C295.538 141.743 295.442 141.67 295.376 141.572L276.645 114.28L276.537 114.121H270.743V151.206H276.231V124.127C276.231 124.008 276.268 123.892 276.338 123.796C276.409 123.7 276.508 123.63 276.621 123.594C276.735 123.559 276.857 123.561 276.969 123.6C277.081 123.64 277.178 123.714 277.244 123.812L296.03 151.206H301.878V114.136H296.389V141.273Z" fill="white"/>
<path d="M306.458 119.097H316.964C317.157 119.097 317.341 119.174 317.477 119.31C317.613 119.446 317.69 119.63 317.69 119.823V151.206H323.178V119.823C323.178 119.727 323.197 119.633 323.233 119.544C323.27 119.456 323.324 119.376 323.391 119.309C323.459 119.241 323.539 119.188 323.628 119.152C323.716 119.115 323.811 119.097 323.906 119.097H334.413V114.136H306.458V119.097Z" fill="white"/>
<path d="M473.377 133.683C471.105 131.983 467.289 130.491 462.035 129.25C458.836 128.518 456.525 127.751 455.17 126.933C453.881 126.165 453.255 125.251 453.255 124.142C453.255 122.484 453.974 121.177 455.458 120.143C456.942 119.109 458.986 118.567 461.477 118.567C463.649 118.522 465.774 119.205 467.514 120.506C469.165 121.733 470.306 123.526 470.718 125.542L470.793 125.904L475.85 124.669L475.763 124.319C475.031 121.203 473.219 118.448 470.649 116.54C468.054 114.595 464.969 113.609 461.477 113.609C457.425 113.609 454.097 114.577 451.585 116.489C449.074 118.402 447.764 121.001 447.764 124.142C447.736 125.357 448.005 126.561 448.546 127.649C449.088 128.737 449.886 129.678 450.872 130.389C452.88 131.914 456.267 133.245 460.917 134.348C464.747 135.248 467.511 136.201 469.106 137.166C470.646 138.095 471.396 139.189 471.396 140.514C471.396 142.379 470.521 143.85 468.725 145.01C466.93 146.17 464.463 146.782 461.474 146.782C458.177 146.782 455.479 145.997 453.483 144.447C452.523 143.751 451.749 142.831 451.226 141.768C450.704 140.704 450.449 139.529 450.485 138.344V137.984H445.276V138.344C445.276 142.361 446.774 145.637 449.772 148.083C452.769 150.529 456.666 151.74 461.462 151.74C466.042 151.74 469.786 150.709 472.589 148.679C475.391 146.65 476.872 143.883 476.872 140.517C476.887 137.724 475.706 135.424 473.377 133.683Z" fill="white"/>
<path d="M246.565 113.516C242.731 113.516 238.982 114.653 235.794 116.783C232.606 118.914 230.121 121.942 228.653 125.484C227.186 129.027 226.802 132.925 227.55 136.686C228.298 140.447 230.145 143.901 232.856 146.613C235.567 149.324 239.022 151.171 242.783 151.919C246.544 152.667 250.442 152.283 253.985 150.816C257.527 149.348 260.555 146.863 262.685 143.675C264.816 140.487 265.953 136.738 265.953 132.904C265.947 127.763 263.903 122.835 260.268 119.201C256.634 115.566 251.705 113.521 246.565 113.516ZM246.565 146.752C243.826 146.752 241.149 145.94 238.871 144.418C236.594 142.896 234.819 140.734 233.771 138.203C232.723 135.673 232.449 132.888 232.983 130.202C233.517 127.516 234.836 125.048 236.773 123.111C238.71 121.175 241.177 119.856 243.863 119.321C246.55 118.787 249.334 119.061 251.865 120.109C254.395 121.158 256.558 122.933 258.08 125.21C259.601 127.487 260.414 130.165 260.414 132.904C260.412 136.577 258.953 140.099 256.356 142.697C253.76 145.295 250.238 146.757 246.565 146.761V146.752Z" fill="white"/>
<path d="M354.328 113.237C344.307 113.612 336.016 121.906 335.65 131.926C335.474 136.459 336.89 140.911 339.652 144.509C342.414 148.108 346.349 150.626 350.773 151.627C355.197 152.628 359.833 152.049 363.875 149.99C367.917 147.931 371.111 144.523 372.903 140.355L367.034 139.891C366.435 140.845 365.736 141.733 364.951 142.541C363.657 143.842 362.118 144.875 360.423 145.58C358.729 146.285 356.911 146.647 355.076 146.647C353.24 146.647 351.423 146.285 349.728 145.58C348.033 144.875 346.495 143.842 345.2 142.541C343.27 140.629 341.952 138.186 341.415 135.523C341.395 135.394 341.403 135.262 341.439 135.137C341.475 135.011 341.538 134.895 341.624 134.796C341.709 134.698 341.815 134.619 341.935 134.565C342.054 134.512 342.183 134.485 342.314 134.486H374.411C374.468 133.917 374.519 133.287 374.519 132.667C374.523 130.049 373.997 127.458 372.974 125.049C371.951 122.64 370.451 120.463 368.565 118.648C366.679 116.833 364.446 115.418 361.999 114.488C359.553 113.558 356.943 113.133 354.328 113.237ZM367.643 129.124H342.512C342.412 129.123 342.313 129.101 342.222 129.06C342.131 129.019 342.049 128.959 341.983 128.885C341.916 128.81 341.866 128.723 341.835 128.628C341.804 128.532 341.794 128.432 341.804 128.332C341.804 128.293 341.822 128.254 341.834 128.225L341.948 127.925C341.966 127.874 341.984 127.826 342.005 127.775C342.104 127.511 342.212 127.253 342.332 126.996C342.387 126.858 342.451 126.724 342.521 126.594C342.584 126.448 342.655 126.306 342.734 126.168C342.774 126.081 342.82 125.997 342.871 125.916C342.964 125.734 343.072 125.545 343.186 125.365C343.485 124.88 343.811 124.412 344.163 123.965C344.295 123.806 344.427 123.644 344.559 123.494C344.604 123.45 344.64 123.399 344.685 123.357C344.85 123.168 345.024 122.985 345.2 122.808C346.495 121.508 348.034 120.476 349.729 119.772C351.424 119.067 353.241 118.705 355.076 118.705C356.911 118.705 358.728 119.067 360.423 119.772C362.117 120.476 363.656 121.508 364.951 122.808C365.125 122.985 365.302 123.168 365.466 123.357C365.508 123.399 365.547 123.45 365.589 123.494C365.736 123.656 365.889 123.833 366.018 124.001C366.026 124.017 366.036 124.032 366.048 124.046C366.207 124.253 366.363 124.46 366.513 124.672C366.662 124.885 366.812 125.131 366.965 125.365C367.118 125.599 367.235 125.815 367.355 126.042C367.596 126.49 367.814 126.949 368.008 127.418C368.026 127.46 368.038 127.505 368.059 127.55C368.146 127.769 368.227 127.988 368.308 128.216C368.308 128.216 368.308 128.234 368.308 128.24C368.308 128.245 368.329 128.308 368.341 128.347C368.351 128.446 368.34 128.545 368.31 128.639C368.28 128.733 368.23 128.82 368.164 128.894C368.099 128.967 368.018 129.027 367.929 129.068C367.839 129.109 367.741 129.131 367.643 129.133V129.124Z" fill="white"/>
<path d="M405.441 141.273C405.438 141.39 405.399 141.504 405.327 141.597C405.256 141.691 405.157 141.759 405.044 141.793C404.931 141.826 404.811 141.823 404.7 141.783C404.589 141.743 404.494 141.67 404.428 141.572L385.697 114.295L385.589 114.136H379.794V151.206H385.283V124.127C385.283 124.008 385.322 123.893 385.392 123.798C385.463 123.702 385.562 123.632 385.675 123.597C385.789 123.562 385.91 123.564 386.023 123.602C386.135 123.641 386.232 123.715 386.299 123.812L405.081 151.206H410.929V114.136H405.441V141.273Z" fill="white"/>
<path d="M415.03 119.097H425.521C425.617 119.097 425.711 119.115 425.8 119.152C425.888 119.188 425.968 119.241 426.036 119.309C426.104 119.376 426.157 119.456 426.194 119.544C426.231 119.633 426.249 119.727 426.249 119.823V151.206H431.738V119.823C431.738 119.63 431.814 119.446 431.95 119.31C432.086 119.174 432.271 119.097 432.463 119.097H442.972V114.136H415.03V119.097Z" fill="white"/>
</svg>
