<svg width="180" height="15" viewBox="0 0 180 15" fill="none" xmlns="http://www.w3.org/2000/svg">
<path d="M7.2536 11.0383C7.23899 11.084 7.21024 11.1238 7.1715 11.1521C7.13276 11.1804 7.08603 11.1956 7.03806 11.1956C6.99009 11.1956 6.94336 11.1804 6.90462 11.1521C6.86588 11.1238 6.83713 11.084 6.82252 11.0383L2.74937 0.510322H0V14.7539H2.02865V5.33813C2.0174 5.27902 2.03009 5.21786 2.06394 5.1681C2.09778 5.11834 2.15 5.08407 2.20912 5.07281C2.26823 5.06156 2.32939 5.07425 2.37915 5.10809C2.42891 5.14194 2.46319 5.19416 2.47444 5.25328L6.19684 14.7573H7.88267L11.5983 5.26119C11.6095 5.20193 11.6439 5.14956 11.6937 5.11561C11.7436 5.08167 11.8049 5.06892 11.8642 5.08017C11.9234 5.09142 11.9758 5.12576 12.0098 5.17562C12.0437 5.22548 12.0565 5.28679 12.0452 5.34605V14.7573H14.075V0.511454H11.3064L7.2536 11.0383Z" fill="black"/>
<path d="M18.8689 8.32057H30.9831C31.0046 8.10447 31.0239 7.868 31.0239 7.6338C31.0251 6.64594 30.8267 5.66802 30.4405 4.75876C30.0543 3.8495 29.4884 3.02766 28.7767 2.34258C28.065 1.65749 27.2222 1.1233 26.2989 0.772085C25.3756 0.420866 24.3908 0.259863 23.4037 0.298737C19.6213 0.441298 16.4906 3.57196 16.3537 7.3532C16.2868 9.06427 16.821 10.7448 17.8635 12.1032C18.906 13.4617 20.3912 14.4124 22.0613 14.7904C23.7314 15.1684 25.4812 14.9499 27.0071 14.1728C28.533 13.3957 29.7387 12.109 30.4152 10.5359L28.1998 10.3605C27.9713 10.7206 27.7059 11.0558 27.4078 11.3607C26.9193 11.852 26.3385 12.2419 25.6988 12.5079C25.0591 12.7739 24.3731 12.9109 23.6803 12.9109C22.9875 12.9109 22.3015 12.7739 21.6618 12.5079C21.0221 12.2419 20.4413 11.852 19.9528 11.3607C19.2262 10.6385 18.7307 9.71656 18.5295 8.71205C18.5219 8.66332 18.5251 8.61352 18.5387 8.56613C18.5523 8.51873 18.5761 8.47488 18.6084 8.43762C18.6407 8.40036 18.6808 8.37059 18.7258 8.35037C18.7708 8.33016 18.8196 8.31999 18.8689 8.32057ZM18.6811 5.99549C18.6844 5.98204 18.6886 5.96881 18.6935 5.95589C18.7071 5.91515 18.7218 5.87782 18.7354 5.83708C18.7433 5.81785 18.7501 5.79975 18.7569 5.78051C18.7954 5.68095 18.835 5.58365 18.8802 5.48634C18.9017 5.4343 18.9255 5.38452 18.9515 5.33473C18.9775 5.28495 19.0036 5.22159 19.0318 5.17407C19.0472 5.14134 19.0646 5.10959 19.0839 5.07903C19.1201 5.01001 19.1597 4.93873 19.197 4.87085C19.31 4.6873 19.4335 4.5105 19.567 4.34133C19.6168 4.2825 19.6666 4.22141 19.7164 4.1637C19.7322 4.14786 19.7469 4.12863 19.7627 4.11165C19.825 4.04037 19.8917 3.97249 19.9573 3.90574C20.4459 3.41446 21.0267 3.02459 21.6664 2.75856C22.3061 2.49253 22.992 2.35558 23.6848 2.35558C24.3777 2.35558 25.0636 2.49253 25.7033 2.75856C26.343 3.02459 26.9238 3.41446 27.4123 3.90574C27.4791 3.97249 27.5459 4.04037 27.6069 4.11165C27.6239 4.12863 27.6375 4.14786 27.6545 4.1637C27.7088 4.22593 27.7676 4.29155 27.8151 4.35604C27.8188 4.36204 27.823 4.36771 27.8276 4.37302C27.8864 4.45109 27.9407 4.52915 28.0029 4.60949C28.0652 4.68982 28.1161 4.78259 28.1738 4.87085C28.2315 4.9591 28.2756 5.04056 28.3197 5.12655C28.4109 5.2949 28.4932 5.46787 28.5664 5.64474C28.5732 5.66171 28.5788 5.67869 28.5856 5.69453C28.6184 5.77825 28.649 5.86085 28.6807 5.9457C28.6807 5.9457 28.6807 5.95362 28.6807 5.95589C28.6807 5.95815 28.6875 5.98191 28.692 5.99549C28.697 6.03324 28.6939 6.07163 28.6828 6.10808C28.6718 6.14454 28.6532 6.17824 28.6281 6.20693C28.6031 6.23561 28.5722 6.25864 28.5376 6.27446C28.5029 6.29029 28.4653 6.29855 28.4272 6.29871H18.9436C18.9058 6.29876 18.8684 6.29086 18.8339 6.27552C18.7994 6.26019 18.7685 6.23776 18.7432 6.2097C18.7179 6.18163 18.6988 6.14856 18.6871 6.11263C18.6755 6.0767 18.6715 6.03871 18.6754 6.00114L18.6811 5.99549Z" fill="black"/>
<path d="M56.6123 14.9134C55.1649 14.9134 53.75 14.4842 52.5466 13.6801C51.3431 12.876 50.4051 11.7331 49.8512 10.3958C49.2974 9.05864 49.1524 7.58722 49.4348 6.16765C49.7172 4.74808 50.4142 3.44412 51.4376 2.42067C52.4611 1.39721 53.765 0.700231 55.1846 0.417861C56.6042 0.135491 58.0756 0.280413 59.4128 0.834302C60.75 1.38819 61.8929 2.32617 62.697 3.52962C63.5012 4.73308 63.9304 6.14795 63.9304 7.59533C63.9283 9.53557 63.1566 11.3957 61.7846 12.7677C60.4127 14.1396 58.5525 14.9113 56.6123 14.9134ZM56.6123 2.36813C55.5784 2.36813 54.5678 2.6747 53.7082 3.24907C52.8486 3.82345 52.1786 4.63982 51.783 5.59497C51.3873 6.55012 51.2838 7.60113 51.4855 8.61511C51.6872 9.62909 52.1851 10.5605 52.9161 11.2915C53.6471 12.0226 54.5785 12.5204 55.5925 12.7221C56.6065 12.9238 57.6575 12.8203 58.6126 12.4246C59.5678 12.029 60.3842 11.359 60.9585 10.4994C61.5329 9.6398 61.8395 8.62918 61.8395 7.59533C61.838 6.20945 61.2868 4.88076 60.3068 3.90079C59.3268 2.92083 57.9982 2.36963 56.6123 2.36813Z" fill="black"/>
<path d="M47.355 7.51726V7.59646C47.3533 8.94435 46.9801 10.2657 46.2762 11.4152C45.5724 12.5648 44.5653 13.498 43.3655 14.1124C43.3124 14.1407 43.2592 14.1655 43.2049 14.1916L43.0453 14.2662C42.9548 14.3081 42.8609 14.3477 42.7681 14.3794C42.6754 14.4111 42.5758 14.4541 42.4785 14.4925C42.3812 14.531 42.2579 14.5672 42.1458 14.6057C42.0044 14.6475 41.8573 14.6849 41.7114 14.7188C41.5835 14.7494 41.4557 14.772 41.3256 14.7957L41.2701 14.8071C41.131 14.8308 40.9861 14.8489 40.8424 14.8648H40.8357C40.5705 14.8957 40.3038 14.9123 40.0369 14.9145C38.7012 14.9146 37.3909 14.5492 36.2481 13.8578C35.1053 13.1664 34.1736 12.1754 33.5538 10.9922C32.934 9.80899 32.6499 8.47875 32.7322 7.14561C32.8145 5.81246 33.26 4.52726 34.0206 3.42929C34.7812 2.33131 35.8278 1.46243 37.0469 0.916807C38.2661 0.371185 39.6113 0.169632 40.9369 0.33399C42.2624 0.498347 43.5177 1.02234 44.5666 1.8492C45.6156 2.67606 46.4183 3.77423 46.8877 5.02472H44.5852C44.1326 4.2245 43.4769 3.55784 42.6843 3.09202C41.8917 2.6262 40.9902 2.37771 40.0709 2.37163C39.1516 2.36555 38.2469 2.60209 37.4482 3.05739C36.6495 3.51268 35.9851 4.17061 35.5219 4.96477C35.0588 5.75893 34.8133 6.66122 34.8103 7.58057C34.8073 8.49991 35.0469 9.40378 35.5049 10.2009C35.9628 10.9981 36.623 11.6603 37.4187 12.1208C38.2144 12.5813 39.1175 12.8238 40.0369 12.8237C40.15 12.8237 40.2552 12.8237 40.3616 12.8112C41.3992 12.7463 42.3939 12.3735 43.2185 11.7405C44.0432 11.1074 44.6605 10.2429 44.9914 9.2574C44.9982 9.24043 45.0038 9.22232 45.0106 9.20648C45.0174 9.19064 45.0106 9.1963 45.0106 9.19404C45.0159 9.18131 45.0197 9.16802 45.0219 9.15444C45.0265 9.12113 45.0242 9.08725 45.0152 9.05487C45.0003 8.99751 44.967 8.94663 44.9204 8.91004C44.8738 8.87345 44.8164 8.85318 44.7572 8.85235H40.3661V6.83161H47.3199C47.3199 6.84745 47.3199 6.86443 47.3199 6.88253C47.3199 6.91987 47.3267 6.95947 47.3289 6.99567C47.3357 7.08845 47.3425 7.18122 47.347 7.27627C47.3516 7.3713 47.355 7.43806 47.355 7.51726Z" fill="black"/>
<path d="M82.1398 8.7925C81.9143 9.88784 81.3278 10.8759 80.4743 11.5984C79.6417 12.3029 78.5824 12.6822 77.4919 12.6665C76.0719 12.6665 74.9111 12.1766 74.0421 11.2115C73.1732 10.2464 72.7274 8.93958 72.7274 7.342C72.7274 5.74442 73.1698 4.44215 74.0421 3.47251C74.9145 2.50288 76.0719 2.01749 77.4919 2.01749C78.5312 2.00714 79.5427 2.35337 80.3578 2.99844C81.1907 3.65037 81.7885 4.55598 82.0606 5.5781L82.0889 5.67767H84.1254L84.0881 5.51135C83.7226 3.91603 82.9261 2.6081 81.7211 1.62602C80.5302 0.649047 79.0321 0.124823 77.4919 0.146109C75.4485 0.146109 73.7808 0.812523 72.5328 2.12838C71.2848 3.44423 70.6558 5.19229 70.6558 7.342C70.6558 9.49172 71.2871 11.2432 72.5328 12.5556C73.7785 13.8681 75.4485 14.5379 77.4919 14.5379C79.0758 14.5627 80.6134 14.0028 81.8105 12.9652C83.0166 11.9232 83.8086 10.5383 84.1481 8.84907L84.1809 8.68614H82.1669L82.1398 8.7925Z" fill="black"/>
<path d="M111.875 10.5881C111.874 10.6325 111.859 10.6754 111.832 10.7107C111.805 10.746 111.768 10.7717 111.725 10.7843C111.682 10.7969 111.637 10.7957 111.595 10.7807C111.553 10.7658 111.517 10.7379 111.492 10.7012L104.422 0.399559L104.381 0.33959H102.194V14.3376H104.266V4.1163C104.266 4.07144 104.28 4.02769 104.306 3.9915C104.333 3.95531 104.37 3.92859 104.413 3.91528C104.456 3.90197 104.502 3.90278 104.544 3.91758C104.587 3.93239 104.623 3.9604 104.648 3.9975L111.739 14.3376H113.946V0.345249H111.875V10.5881Z" fill="black"/>
<path d="M115.675 2.21776H119.641C119.714 2.21776 119.783 2.2466 119.835 2.29795C119.886 2.3493 119.915 2.41895 119.915 2.49156V14.3376H121.986V2.49156C121.986 2.45551 121.994 2.41982 122.007 2.38652C122.021 2.35323 122.041 2.32299 122.067 2.29755C122.093 2.27211 122.123 2.25197 122.156 2.23827C122.19 2.22458 122.225 2.21761 122.261 2.21776H126.227V0.345242H115.675V2.21776Z" fill="black"/>
<path d="M178.681 7.72329C177.823 7.08177 176.383 6.51832 174.399 6.04991C173.192 5.77384 172.32 5.48419 171.808 5.17531C171.322 4.88567 171.085 4.54058 171.085 4.12195C171.085 3.49627 171.357 3.00297 171.917 2.61263C172.477 2.22228 173.249 2.01749 174.189 2.01749C175.009 2.00083 175.811 2.25847 176.468 2.74953C177.091 3.21272 177.522 3.88949 177.677 4.65033L177.705 4.78723L179.614 4.32108L179.581 4.18871C179.305 3.01273 178.621 1.97258 177.651 1.25265C176.671 0.518348 175.507 0.146108 174.189 0.146108C172.659 0.146108 171.403 0.511561 170.455 1.23341C169.507 1.95527 169.013 2.93622 169.013 4.12195C169.002 4.58067 169.104 5.03501 169.308 5.44579C169.512 5.85657 169.814 6.21146 170.186 6.47985C170.944 7.05575 172.222 7.55811 173.977 7.97447C175.423 8.3139 176.466 8.67369 177.068 9.03801C177.65 9.38876 177.933 9.80173 177.933 10.3018C177.933 11.0056 177.602 11.5611 176.925 11.999C176.247 12.4368 175.316 12.6676 174.188 12.6676C172.943 12.6676 171.925 12.3712 171.171 11.7863C170.809 11.5237 170.517 11.1765 170.32 10.775C170.122 10.3735 170.026 9.92979 170.04 9.48267V9.34689H168.073V9.48267C168.073 10.9988 168.639 12.2354 169.771 13.1587C170.902 14.0819 172.373 14.539 174.183 14.539C175.912 14.539 177.325 14.1498 178.383 13.3838C179.441 12.6179 180 11.5735 180 10.303C180.006 9.24846 179.56 8.38065 178.681 7.72329Z" fill="black"/>
<path d="M93.0683 0.111046C91.621 0.111046 90.2061 0.540244 89.0026 1.34437C87.7992 2.14849 86.8612 3.29142 86.3073 4.62862C85.7534 5.96583 85.6085 7.43725 85.8909 8.85682C86.1732 10.2764 86.8702 11.5804 87.8937 12.6038C88.9171 13.6273 90.2211 14.3242 91.6406 14.6066C93.0602 14.889 94.5316 14.7441 95.8688 14.1902C97.2061 13.6363 98.349 12.6983 99.1531 11.4948C99.9572 10.2914 100.386 8.87652 100.386 7.42914C100.384 5.4889 99.6126 3.62874 98.2407 2.25678C96.8687 0.884828 95.0086 0.113143 93.0683 0.111046ZM93.0683 12.6563C92.0345 12.6563 91.0239 12.3498 90.1643 11.7754C89.3046 11.201 88.6347 10.3846 88.239 9.4295C87.8434 8.47435 87.7399 7.42334 87.9416 6.40936C88.1433 5.39538 88.6411 4.46398 89.3721 3.73294C90.1032 3.0019 91.0346 2.50406 92.0486 2.30237C93.0625 2.10068 94.1136 2.20419 95.0687 2.59983C96.0238 2.99546 96.8402 3.66545 97.4146 4.52506C97.989 5.38467 98.2955 6.39529 98.2955 7.42914C98.2949 8.81561 97.7441 10.1452 96.7641 11.1259C95.784 12.1066 94.4548 12.6582 93.0683 12.6597V12.6563Z" fill="black"/>
<path d="M133.744 0.00581584C129.962 0.147245 126.832 3.27791 126.694 7.06028C126.628 8.77125 127.162 10.4516 128.205 11.8098C129.247 13.168 130.732 14.1185 132.402 14.4964C134.072 14.8742 135.822 14.6557 137.348 13.8786C138.874 13.1015 140.079 11.8148 140.756 10.2419L138.54 10.0665C138.314 10.4265 138.05 10.7618 137.754 11.0667C137.265 11.5579 136.685 11.9478 136.045 12.2138C135.405 12.4799 134.719 12.6168 134.027 12.6168C133.334 12.6168 132.648 12.4799 132.008 12.2138C131.368 11.9478 130.788 11.5579 130.299 11.0667C129.57 10.3452 129.073 9.42317 128.87 8.418C128.862 8.36926 128.866 8.31947 128.879 8.27207C128.893 8.22468 128.917 8.18082 128.949 8.14356C128.981 8.1063 129.021 8.07653 129.066 8.05632C129.111 8.0361 129.16 8.02594 129.209 8.02652H141.325C141.346 7.81155 141.366 7.57395 141.366 7.33974C141.367 6.35179 141.169 5.37375 140.782 4.4644C140.396 3.55505 139.83 2.73315 139.118 2.04811C138.406 1.36307 137.563 0.829029 136.64 0.478066C135.716 0.127102 134.731 -0.0335326 133.744 0.00581584ZM138.77 6.00239H129.284C129.246 6.00213 129.209 5.99397 129.175 5.97843C129.14 5.9629 129.11 5.94034 129.084 5.91221C129.059 5.88407 129.04 5.85099 129.029 5.81508C129.017 5.77917 129.013 5.74122 129.017 5.70369C129.017 5.68899 129.024 5.67428 129.028 5.66296L129.071 5.54982C129.078 5.53059 129.085 5.51248 129.093 5.49325C129.13 5.39368 129.171 5.29638 129.216 5.19908C129.237 5.14728 129.261 5.09667 129.288 5.04747C129.312 4.99259 129.338 4.93896 129.368 4.8868C129.383 4.85397 129.4 4.82222 129.42 4.79176C129.455 4.72274 129.496 4.65147 129.539 4.58358C129.651 4.40049 129.775 4.22407 129.908 4.0552C129.957 3.99524 130.007 3.93414 130.057 3.87757C130.074 3.8606 130.087 3.84136 130.104 3.82552C130.167 3.75424 130.232 3.68522 130.299 3.61847C130.788 3.1276 131.369 2.7381 132.008 2.47232C132.648 2.20654 133.334 2.06973 134.027 2.06973C134.719 2.06973 135.405 2.20654 136.045 2.47232C136.684 2.7381 137.265 3.1276 137.754 3.61847C137.82 3.68522 137.886 3.75424 137.949 3.82552C137.964 3.84136 137.979 3.8606 137.995 3.87757C138.05 3.93867 138.108 4.00542 138.157 4.06878C138.16 4.07494 138.164 4.08065 138.168 4.08575C138.228 4.16382 138.287 4.24189 138.343 4.32222C138.4 4.40255 138.457 4.49533 138.514 4.58358C138.572 4.67183 138.616 4.7533 138.661 4.83928C138.752 5.00814 138.835 5.18147 138.908 5.35861C138.915 5.37445 138.919 5.39142 138.927 5.40839C138.96 5.49099 138.991 5.57358 139.021 5.65957C139.021 5.65957 139.021 5.66636 139.021 5.66862C139.021 5.67088 139.029 5.69464 139.034 5.70935C139.037 5.74646 139.033 5.78394 139.022 5.81942C139.01 5.85491 138.992 5.88762 138.967 5.91549C138.942 5.94336 138.912 5.96577 138.878 5.98132C138.844 5.99686 138.807 6.00519 138.77 6.00579V6.00239Z" fill="black"/>
<path d="M153.037 10.5881C153.037 10.6325 153.021 10.6754 152.995 10.7107C152.968 10.7459 152.93 10.7717 152.888 10.7843C152.845 10.7969 152.8 10.7957 152.758 10.7807C152.716 10.7658 152.68 10.7379 152.655 10.7012L145.585 0.405207L145.544 0.345242H143.357V14.3376H145.429V4.1163C145.429 4.07151 145.443 4.02795 145.47 3.99195C145.497 3.95595 145.534 3.92939 145.577 3.91614C145.62 3.90289 145.665 3.90363 145.708 3.91826C145.75 3.9329 145.787 3.96065 145.812 3.9975L152.902 14.3376H155.109V0.345242H153.037V10.5881Z" fill="black"/>
<path d="M156.657 2.21776H160.617C160.653 2.21761 160.689 2.22458 160.722 2.23827C160.755 2.25197 160.786 2.27211 160.811 2.29755C160.837 2.32299 160.857 2.35323 160.871 2.38652C160.885 2.41982 160.892 2.45551 160.892 2.49156V14.3376H162.964V2.49156C162.964 2.41895 162.992 2.3493 163.044 2.29795C163.095 2.2466 163.165 2.21776 163.237 2.21776H167.204V0.345242H156.657V2.21776Z" fill="black"/>
</svg>
