<svg width="17" height="17" viewBox="0 0 17 17" fill="none" xmlns="http://www.w3.org/2000/svg">
<g clip-path="url(#clip0_107_3746)">
<path fill-rule="evenodd" clip-rule="evenodd" d="M2.96037 6.07616C3.29309 6.03457 3.59654 6.27058 3.63813 6.60331L4.78593 15.7858H12.214L13.3618 6.60331C13.4034 6.27058 13.7068 6.03457 14.0395 6.07616C14.3723 6.11775 14.6083 6.4212 14.5667 6.75392L13.3524 16.4682C13.3144 16.772 13.0562 17 12.75 17H4.24996C3.94376 17 3.68548 16.772 3.6475 16.4682L2.43322 6.75392C2.39163 6.4212 2.62764 6.11775 2.96037 6.07616Z" fill="black"/>
<path fill-rule="evenodd" clip-rule="evenodd" d="M0.607178 4.24996C0.607178 3.91465 0.879005 3.64282 1.21432 3.64282H15.7857C16.1211 3.64282 16.3929 3.91465 16.3929 4.24996C16.3929 4.58528 16.1211 4.85711 15.7857 4.85711H1.21432C0.879005 4.85711 0.607178 4.58528 0.607178 4.24996Z" fill="black"/>
<path fill-rule="evenodd" clip-rule="evenodd" d="M6.63002 1.18999C6.469 1.18999 6.31457 1.25396 6.20071 1.36782C6.08685 1.48168 6.02288 1.63611 6.02288 1.79714V3.89785C6.02288 4.23317 5.75105 4.50499 5.41574 4.50499C5.08042 4.50499 4.80859 4.23317 4.80859 3.89785V1.79714C4.80859 1.31406 5.00049 0.850776 5.34208 0.509192C5.68366 0.167608 6.14695 -0.024292 6.63002 -0.024292H10.2729C10.756 -0.024292 11.2192 0.167608 11.5608 0.509192C11.9024 0.850776 12.0943 1.31406 12.0943 1.79714V4.22571C12.0943 4.56102 11.8225 4.83285 11.4872 4.83285C11.1518 4.83285 10.88 4.56102 10.88 4.22571V1.79714C10.88 1.63611 10.8161 1.48168 10.7022 1.36782C10.5883 1.25396 10.4339 1.18999 10.2729 1.18999H6.63002Z" fill="black"/>
</g>
<defs>
<clipPath id="clip0_107_3746">
<rect width="17" height="17" fill="white"/>
</clipPath>
</defs>
</svg>
